<svg viewBox="-250 -250 500 500" width="500" height="500" xmlns="http://www.w3.org/2000/svg"><path d="M-32.00407076892744,-82.90065900454587L-65.39429460587023,-72.45276144973352L-73.90966784811859,-69.10078361336578zM-32.00407076892744,-82.90065900454587L-73.90966784811859,-69.10078361336578L-82.35954673971227,-65.50346615821677zM-32.00407076892744,-82.90065900454587L-56.879416733392866,-75.53313017288198L-65.39429460587023,-72.45276144973352zM-32.00407076892744,-82.90065900454587L-82.35954673971227,-65.50346615821677L-90.677895086292,-61.68853318738763zM-32.00407076892744,-82.90065900454587L-48.431467127195454,-78.31680060394346L-56.879416733392866,-75.53313017288198zM-32.00407076892744,-82.90065900454587L-90.677895086292,-61.68853318738763L-98.79934093721815,-57.684894169626396zM-32.00407076892744,-82.90065900454587L-40.11723590909354,-80.78004241523628L-48.431467127195454,-78.31680060394346zM-32.00407076892744,-82.90065900454587L-98.79934093721815,-57.684894169626396L-106.65873839856434,-53.52276293633032zM-32.00407076892744,-82.90065900454587L-106.65873839856434,-53.52276293633032L-114.19141103248312,-49.23396442824278zM-32.00407076892744,-82.90065900454587L-114.19141103248312,-49.23396442824278L-121.33300620559453,-44.851627040931824zM-32.00407076892744,-82.90065900454587L-20.48844951725457,-85.3297496371784L-24.159205526974223,-84.65782391815196zM-32.00407076892744,-82.90065900454587L-121.33300620559453,-44.851627040931824L-128.0198997474014,-40.41027004061417zM-32.00407076892744,-82.90065900454587L-128.0198997474014,-40.41027004061417L-134.18937558858133,-35.94587736371422zM-32.00407076892744,-82.90065900454587L-134.18937558858133,-35.94587736371422L-139.77976690870324,-31.4961602378055zM-32.00407076892744,-82.90065900454587L-139.77976690870324,-31.4961602378055L-144.7315083012371,-27.09988357773559zM-32.00407076892744,-82.90065900454587L-144.7315083012371,-27.09988357773559L-148.98667205779822,-22.797339993959156zM-32.00407076892744,-82.90065900454587L-148.98667205779822,-22.797339993959156L-152.490952550588,-18.629721383853582zM-32.00407076892744,-82.90065900454587L-152.490952550588,-18.629721383853582L-155.19325670972057,-14.639447880394505z" style="fill:rgb(82,237,172)"/><path d="M57.990453169612316,6.53500421146066L67.89230224282821,51.81503205551419L74.50536507369293,49.263938995603105z" style="fill:rgb(139,83,246)"/><path d="M-32.00407076892744,-82.90065900454587L-155.19325670972057,-14.639447880394505L-157.04734585660404,-10.869153271201842zM1.0785235720672703,-129.47509739463155L-33.6731930380887,-128.45781503118334L-37.527996567535766,-127.63186670507459zM1.0785235720672703,-129.47509739463155L-26.553226339917348,-129.69812280968966L-33.6731930380887,-128.45781503118334zM-32.00407076892744,-82.90065900454587L-146.32598289687024,5.3210604273847135L-20.48844951725457,-85.3297496371784zM-32.00407076892744,-82.90065900454587L-157.04734585660404,-10.869153271201842L-158.01281148984916,-7.361895378984683zM1.0785235720672703,-129.47509739463155L-19.921796388269243,-130.5456748613561L-26.553226339917348,-129.69812280968966z" style="fill:rgb(82,237,172)"/><path d="M25.155532511037602,-78.43025605159664L74.50536507369293,49.263938995603105L74.23329098251426,48.25808406471537z" style="fill:rgb(246,171,139)"/><path d="M59.15383042739418,55.62087879376856L67.89230224282821,51.81503205551419L11.32050548055769,-72.72966480219688z" style="fill:rgb(151,88,246)"/><path d="M50.674427797339256,59.758843432933475L59.15383042739418,55.62087879376856L2.2821840986290836,-68.61853753682972z" style="fill:rgb(162,93,245)"/><path d="M-32.00407076892744,-82.90065900454587L-158.01281148984916,-7.361895378984683L-158.0559024763847,-4.160282016360661z" style="fill:rgb(82,237,172)"/><path d="M42.52049308400158,64.19843049746285L50.674427797339256,59.758843432933475L-6.478842067084792,-64.29704814908408z" style="fill:rgb(174,99,242)"/><path d="M1.0785235720672703,-129.47509739463155L-13.84602985029321,-130.9854406185161L-19.921796388269243,-130.5456748613561z" style="fill:rgb(82,237,172)"/><path d="M57.990453169612316,6.53500421146066L18.226567555968177,-75.68192151190284L67.89230224282821,51.81503205551419z" style="fill:rgb(139,83,246)"/><path d="M34.757391764431745,68.90724678625556L42.52049308400158,64.19843049746285L-14.89402256183736,-59.79684343405032z" style="fill:rgb(184,105,239)"/><path d="M1.0785235720672703,-129.47509739463155L-8.391386734859077,-131.00484634413573L-13.84602985029321,-130.9854406185161zM-32.00407076892744,-82.90065900454587L-158.0559024763847,-4.160282016360661L-157.15128569667633,-1.305845788363331z" style="fill:rgb(82,237,172)"/><path d="M27.44974388956968,73.8506323877872L34.757391764431745,68.90724678625556L-22.89527627722181,-55.15086254815894z" style="fill:rgb(195,111,234)"/><path d="M-155.28257306937167,1.1614084076050515L-98.54113900545771,123.4978958298226L-96.2641811238265,126.90903568843387z" style="fill:rgb(15,71,152)"/><path d="M1.0785235720672703,-129.47509739463155L-3.6217802080145303,-130.5938801499762L-8.391386734859077,-131.00484634413573z" style="fill:rgb(82,237,172)"/><path d="M20.660942349306882,78.99198598237997L27.44974388956968,73.8506323877872L-30.415567678248845,-50.39380033180312z" style="fill:rgb(204,117,228)"/><path d="M-32.00407076892744,-82.90065900454587L-157.15128569667633,-1.305845788363331L-155.28257306937167,1.1614084076050515z" style="fill:rgb(82,237,172)"/><path d="M25.155532511037602,-78.43025605159664L74.23329098251426,48.25808406471537L24.990577494241773,-79.1629038055588zM25.155532511037602,-78.43025605159664L25.811273319628516,-76.72215738688962L74.50536507369293,49.263938995603105z" style="fill:rgb(246,171,139)"/><path d="M67.89230224282821,51.81503205551419L18.226567555968177,-75.68192151190284L11.32050548055769,-72.72966480219688zM59.15383042739418,55.62087879376856L11.32050548055769,-72.72966480219688L9.017374781576692,-71.7450867078575z" style="fill:rgb(151,88,246)"/><path d="M59.15383042739418,55.62087879376856L9.017374781576692,-71.7450867078575L2.2821840986290836,-68.61853753682972zM50.674427797339256,59.758843432933475L2.2821840986290836,-68.61853753682972L0.033926126360758174,-67.5749228317287z" style="fill:rgb(162,93,245)"/><path d="M1.0785235720672703,-129.47509739463155L0.40158258631838467,-129.74593028559912L-3.6217802080145303,-130.5938801499762z" style="fill:rgb(82,237,172)"/><path d="M14.453126893807307,84.2925449824759L20.660942349306882,78.99198598237997L-37.38830537746108,-45.56185105684229z" style="fill:rgb(213,124,221)"/><path d="M50.674427797339256,59.758843432933475L0.033926126360758174,-67.5749228317287L-6.478842067084792,-64.29704814908408zM42.52049308400158,64.19843049746285L-6.478842067084792,-64.29704814908408L-8.65484513442578,-63.201959426984075z" style="fill:rgb(174,99,242)"/><path d="M-32.00407076892744,-82.90065900454587L-155.28257306937167,1.1614084076050515L-152.4443371366982,3.203780089169681z" style="fill:rgb(82,237,172)"/><path d="M42.52049308400158,64.19843049746285L-8.65484513442578,-63.201959426984075L-14.89402256183736,-59.79684343405032z" style="fill:rgb(184,105,239)"/><path d="M-152.4443371366982,3.203780089169681L-96.2641811238265,126.90903568843387L-93.07227910915303,129.90390812227187z" style="fill:rgb(20,68,163)"/><path d="M57.990453169612316,6.53500421146066L20.56717074949437,-76.60018002958189L18.226567555968177,-75.68192151190284zM25.161762776179945,-78.40269935488469L20.56717074949437,-76.60018002958189L57.990453169612316,6.53500421146066z" style="fill:rgb(139,83,246)"/><path d="M34.757391764431745,68.90724678625556L-14.89402256183736,-59.79684343405032L-16.980358720892422,-58.658109398644044z" style="fill:rgb(184,105,239)"/><path d="M1.0785235720672703,-129.47509739463155L-37.527996567535766,-127.63186670507459L-146.39636740306653,-54.71277066884769z" style="fill:rgb(82,237,172)"/><path d="M34.757391764431745,68.90724678625556L-16.980358720892422,-58.658109398644044L-22.89527627722181,-55.15086254815894z" style="fill:rgb(195,111,234)"/><path d="M8.886969426614462,89.71128326790546L14.453126893807307,84.2925449824759L-43.74811752583306,-40.692960348173074z" style="fill:rgb(221,130,213)"/><path d="M-155.752926171482,0.5404240759217258L-157.15128569667633,-1.305845788363331L-98.54113900545771,123.4978958298226z" style="fill:rgb(15,71,152)"/><path d="M-32.00407076892744,-82.90065900454587L-152.4443371366982,3.203780089169681L-148.64259471335532,4.7869714090006585z" style="fill:rgb(82,237,172)"/><path d="M27.44974388956968,73.8506323877872L-22.89527627722181,-55.15086254815894L-24.87498048966862,-53.97697778379241z" style="fill:rgb(195,111,234)"/><path d="M27.44974388956968,73.8506323877872L-24.87498048966862,-53.97697778379241L-30.415567678248845,-50.39380033180312z" style="fill:rgb(204,117,228)"/><path d="M-155.28257306937167,1.1614084076050515L-155.752926171482,0.5404240759217258L-98.54113900545771,123.4978958298226z" style="fill:rgb(15,71,152)"/><path d="M-148.64259471335532,4.7869714090006585L-93.07227910915303,129.90390812227187L-88.97826409181003,132.43852957572707z" style="fill:rgb(26,66,175)"/><path d="M-32.00407076892744,-82.90065900454587L-148.64259471335532,4.7869714090006585L-146.32598289687024,5.3210604273847135z" style="fill:rgb(82,237,172)"/><path d="M4.020965761268957,95.20456132648424L8.886969426614462,89.71128326790546L-49.430665151817124,-35.826616491676596z" style="fill:rgb(228,137,204)"/><path d="M20.660942349306882,78.99198598237997L-30.415567678248845,-50.39380033180312L-32.271521755092365,-49.19357032682005z" style="fill:rgb(204,117,228)"/><path d="M25.161762776179945,-78.40269935488469L25.811273319628516,-76.72215738688962L25.155532511037602,-78.43025605159664z" style="fill:rgb(246,171,139)"/><path d="M20.660942349306882,78.99198598237997L-32.271521755092365,-49.19357032682005L-37.38830537746108,-45.56185105684229z" style="fill:rgb(213,124,221)"/><path d="M7.575223933979464,-123.90417973832017L3.6211990921190726,-128.4578348383132L1.0785235720672703,-129.47509739463155z" style="fill:rgb(82,237,172)"/><path d="M-153.15850193966023,2.689765309074397L-155.28257306937167,1.1614084076050515L-96.2641811238265,126.90903568843387z" style="fill:rgb(20,68,163)"/><path d="M24.990577494241773,-79.1629038055588L7.4426810379559845,-124.56996679364504L25.155532511037602,-78.43025605159664z" style="fill:rgb(246,171,139)"/><path d="M14.453126893807307,84.2925449824759L-37.38830537746108,-45.56185105684229L-39.103691987458376,-44.344478155406115z" style="fill:rgb(213,124,221)"/><path d="M7.4426810379559845,-124.56996679364504L25.161762776179945,-78.40269935488469L25.155532511037602,-78.43025605159664z" style="fill:rgb(246,171,139)"/><path d="M-152.4443371366982,3.203780089169681L-153.15850193966023,2.689765309074397L-96.2641811238265,126.90903568843387z" style="fill:rgb(20,68,163)"/><path d="M-143.89632787899512,5.881088558122509L-88.97826409181003,132.43852957572707L-84.00667394360771,134.47245707208734z" style="fill:rgb(32,65,185)"/><path d="M20.56717074949437,-76.60018002958189L0.5255787090812378,-121.1221001932057L18.226567555968177,-75.68192151190284z" style="fill:rgb(139,83,246)"/><path d="M-0.0885894031482898,100.72675132826333L4.020965761268957,95.20456132648424L-54.37390074837374,-31.004114819042922z" style="fill:rgb(234,143,195)"/><path d="M7.575223933979464,-123.90417973832017L20.56717074949437,-76.60018002958189L25.161762776179945,-78.40269935488469z" style="fill:rgb(139,83,246)"/><path d="M18.226567555968177,-75.68192151190284L-8.85196461275726,-117.14006951900353L11.32050548055769,-72.72966480219688zM11.32050548055769,-72.72966480219688L-8.85196461275726,-117.14006951900353L9.017374781576692,-71.7450867078575z" style="fill:rgb(151,88,246)"/><path d="M7.575223933979464,-123.90417973832017L5.9839993942667435,-126.73067338667515L3.6211990921190726,-128.4578348383132z" style="fill:rgb(82,237,172)"/><path d="M14.453126893807307,84.2925449824759L-39.103691987458376,-44.344478155406115L-43.74811752583306,-40.692960348173074z" style="fill:rgb(221,130,213)"/><path d="M9.017374781576692,-71.7450867078575L-18.016735902080455,-112.9626340251013L2.2821840986290836,-68.61853753682972zM2.2821840986290836,-68.61853753682972L-18.016735902080455,-112.9626340251013L0.033926126360758174,-67.5749228317287z" style="fill:rgb(162,93,245)"/><path d="M7.575223933979464,-123.90417973832017L1.0785235720672703,-129.47509739463155L-29.422630082081827,-109.30289336256905z" style="fill:rgb(82,237,172)"/><path d="M0.033926126360758174,-67.5749228317287L-26.898793212884353,-108.62033742441338L-6.478842067084792,-64.29704814908408zM-6.478842067084792,-64.29704814908408L-26.898793212884353,-108.62033742441338L-8.65484513442578,-63.201959426984075z" style="fill:rgb(174,99,242)"/><path d="M-149.59912594996715,4.388688561232544L-152.4443371366982,3.203780089169681L-93.07227910915303,129.90390812227187z" style="fill:rgb(26,66,175)"/><path d="M7.4426810379559845,-124.56996679364504L7.575223933979464,-123.90417973832017L25.161762776179945,-78.40269935488469z" style="fill:rgb(246,171,139)"/><path d="M8.886969426614462,89.71128326790546L-43.74811752583306,-40.692960348173074L-45.306178596110605,-39.46793571516127z" style="fill:rgb(221,130,213)"/><path d="M7.575223933979464,-123.90417973832017L0.5255787090812378,-121.1221001932057L20.56717074949437,-76.60018002958189z" style="fill:rgb(139,83,246)"/><path d="M18.226567555968177,-75.68192151190284L0.5255787090812378,-121.1221001932057L-8.85196461275726,-117.14006951900353z" style="fill:rgb(151,88,246)"/><path d="M-8.65484513442578,-63.201959426984075L-35.428838564588844,-104.1449021204667L-14.89402256183736,-59.79684343405032z" style="fill:rgb(184,105,239)"/><path d="M9.017374781576692,-71.7450867078575L-8.85196461275726,-117.14006951900353L-18.016735902080455,-112.9626340251013z" style="fill:rgb(162,93,245)"/><path d="M7.575223933979464,-123.90417973832017L7.4426810379559845,-124.56996679364504L5.9839993942667435,-126.73067338667515z" style="fill:rgb(82,237,172)"/><path d="M-14.89402256183736,-59.79684343405032L-35.428838564588844,-104.1449021204667L-16.980358720892422,-58.658109398644044z" style="fill:rgb(184,105,239)"/><path d="M-138.2381535520073,6.460981174129022L-84.00667394360771,134.47245707208734L-78.19526847086273,135.97025770086077z" style="fill:rgb(40,64,196)"/><path d="M8.886969426614462,89.71128326790546L-45.306178596110605,-39.46793571516127L-49.430665151817124,-35.826616491676596z" style="fill:rgb(228,137,204)"/><path d="M-3.3886992077118734,106.22975738177533L-0.0885894031482898,100.72675132826333L-58.51770808710642,-26.268513167809367z" style="fill:rgb(239,149,184)"/><path d="M-148.64259471335532,4.7869714090006585L-149.59912594996715,4.388688561232544L-93.07227910915303,129.90390812227187z" style="fill:rgb(26,66,175)"/><path d="M0.033926126360758174,-67.5749228317287L-18.016735902080455,-112.9626340251013L-26.898793212884353,-108.62033742441338z" style="fill:rgb(174,99,242)"/><path d="M-16.980358720892422,-58.658109398644044L-43.537775520254584,-99.56953938728749L-22.89527627722181,-55.15086254815894z" style="fill:rgb(195,111,234)"/><path d="M-8.65484513442578,-63.201959426984075L-26.898793212884353,-108.62033742441338L-35.428838564588844,-104.1449021204667z" style="fill:rgb(184,105,239)"/><path d="M-22.89527627722181,-55.15086254815894L-43.537775520254584,-99.56953938728749L-24.87498048966862,-53.97697778379241z" style="fill:rgb(195,111,234)"/><path d="M0.5255787090812378,-121.1221001932057L-4.2557991205377785,-119.2351194684601L-8.85196461275726,-117.14006951900353zM7.8254910108939875,-124.0029247323008L0.5255787090812378,-121.1221001932057L-8.85196461275726,-117.14006951900353z" style="fill:rgb(82,237,172)"/><path d="M4.020965761268957,95.20456132648424L-49.430665151817124,-35.826616491676596L-50.81535064409775,-34.60419930544898z" style="fill:rgb(228,137,204)"/><path d="M7.8254910108939875,-124.0029247323008L-8.85196461275726,-117.14006951900353L-18.016735902080455,-112.9626340251013zM-4.2557991205377785,-119.2351194684601L-29.422630082081827,-109.30289336256905L-36.91183013471346,-104.3498595417805z" style="fill:rgb(82,237,172)"/><path d="M-145.09021550929742,5.605930313548654L-148.64259471335532,4.7869714090006585L-88.97826409181003,132.43852957572707z" style="fill:rgb(32,65,185)"/><path d="M7.8254910108939875,-124.0029247323008L-18.016735902080455,-112.9626340251013L-26.898793212884353,-108.62033742441338z" style="fill:rgb(82,237,172)"/><path d="M-131.71500332591782,6.507650705311505L-78.19526847086273,135.97025770086077L-71.59495586053951,136.90207364044582z" style="fill:rgb(49,63,205)"/><path d="M-24.87498048966862,-53.97697778379241L-51.157228290812014,-94.92868341240919L-30.415567678248845,-50.39380033180312z" style="fill:rgb(204,117,228)"/><path d="M-16.980358720892422,-58.658109398644044L-35.428838564588844,-104.1449021204667L-43.537775520254584,-99.56953938728749z" style="fill:rgb(195,111,234)"/><path d="M4.020965761268957,95.20456132648424L-50.81535064409775,-34.60419930544898L-54.37390074837374,-31.004114819042922z" style="fill:rgb(234,143,195)"/><path d="M-18.016735902080455,-112.9626340251013L-27.3032040287043,-108.7296344964294L-31.378585618556297,-106.43018598865113zM7.8254910108939875,-124.0029247323008L-26.898793212884353,-108.62033742441338L-35.428838564588844,-104.1449021204667z" style="fill:rgb(82,237,172)"/><path d="M-30.415567678248845,-50.39380033180312L-51.157228290812014,-94.92868341240919L-32.271521755092365,-49.19357032682005z" style="fill:rgb(204,117,228)"/><path d="M-5.8301014704933065,111.66311532086203L-3.3886992077118734,106.22975738177533L-61.80539423530133,-21.664108030420895z" style="fill:rgb(242,155,174)"/><path d="M-143.89632787899512,5.881088558122509L-145.09021550929742,5.605930313548654L-88.97826409181003,132.43852957572707z" style="fill:rgb(32,65,185)"/><path d="M-26.898793212884353,-108.62033742441338L-31.378585618556297,-106.43018598865113L-35.428838564588844,-104.1449021204667zM7.8254910108939875,-124.0029247323008L-35.428838564588844,-104.1449021204667L-43.537775520254584,-99.56953938728749zM-27.3032040287043,-108.7296344964294L-36.91183013471346,-104.3498595417805L-47.63846622708828,-97.2557869514374z" style="fill:rgb(82,237,172)"/><path d="M-24.87498048966862,-53.97697778379241L-43.537775520254584,-99.56953938728749L-51.157228290812014,-94.92868341240919z" style="fill:rgb(204,117,228)"/><path d="M-32.271521755092365,-49.19357032682005L-58.21931061959399,-90.25798742120278L-37.38830537746108,-45.56185105684229z" style="fill:rgb(213,124,221)"/><path d="M-0.0885894031482898,100.72675132826333L-54.37390074837374,-31.004114819042922L-55.56924602640285,-29.794844073224105z" style="fill:rgb(234,143,195)"/><path d="M-124.38794735887296,6.008931467088581L-71.59495586053951,136.90207364044582L-64.26964377069324,137.2448615653306z" style="fill:rgb(58,64,214)"/><path d="M-62.11276384833203,99.71356900463078L-47.76475575100225,136.11071879076346L-45.86757888423342,135.79797032811373z" style="fill:rgb(91,68,234)"/><path d="M7.8254910108939875,-124.0029247323008L-43.537775520254584,-99.56953938728749L-51.157228290812014,-94.92868341240919z" style="fill:rgb(82,237,172)"/><path d="M-139.66092043322035,6.3151915976149455L-143.89632787899512,5.881088558122509L-84.00667394360771,134.47245707208734z" style="fill:rgb(40,64,196)"/><path d="M-37.38830537746108,-45.56185105684229L-58.21931061959399,-90.25798742120278L-39.103691987458376,-44.344478155406115z" style="fill:rgb(213,124,221)"/><path d="M-0.0885894031482898,100.72675132826333L-55.56924602640285,-29.794844073224105L-58.51770808710642,-26.268513167809367z" style="fill:rgb(239,149,184)"/><path d="M-138.2381535520073,6.460981174129022L-139.66092043322035,6.3151915976149455L-84.00667394360771,134.47245707208734z" style="fill:rgb(40,64,196)"/><path d="M-32.271521755092365,-49.19357032682005L-51.157228290812014,-94.92868341240919L-58.21931061959399,-90.25798742120278z" style="fill:rgb(213,124,221)"/><path d="M7.8254910108939875,-124.0029247323008L-51.157228290812014,-94.92868341240919L-58.21931061959399,-90.25798742120278z" style="fill:rgb(82,237,172)"/><path d="M-7.3685250075415265,116.97460195129992L-5.8301014704933065,111.66311532086203L-64.18434816489966,-17.236649232116243z" style="fill:rgb(245,161,162)"/><path d="M-43.537775520254584,-99.56953938728749L-47.63846622708828,-97.2557869514374L-51.157228290812014,-94.92868341240919z" style="fill:rgb(82,237,172)"/><path d="M-39.103691987458376,-44.344478155406115L-64.65738186425473,-85.59500506522558L-43.74811752583306,-40.692960348173074z" style="fill:rgb(221,130,213)"/><path d="M90.10709517126462,-144.2376173045758L10.045505872144695,-124.8791237468925L7.8254910108939875,-124.0029247323008zM90.10709517126462,-144.2376173045758L19.63650856776724,-128.38270901028847L10.045505872144695,-124.8791237468925z" style="fill:rgb(82,237,172)"/><path d="M-116.33275095213031,4.96023098503304L-64.26964377069324,137.2448615653306L-56.29651319576153,136.98341746491295z" style="fill:rgb(69,65,222)"/><path d="M-3.3886992077118734,106.22975738177533L-58.51770808710642,-26.268513167809367L-59.50867300956402,-25.08331476571655z" style="fill:rgb(239,149,184)"/><path d="M90.10709517126462,-144.2376173045758L29.22687175082509,-131.60560402786513L19.63650856776724,-128.38270901028847z" style="fill:rgb(82,237,172)"/><path d="M-43.74811752583306,-40.692960348173074L-64.65738186425473,-85.59500506522558L-45.306178596110605,-39.46793571516127z" style="fill:rgb(221,130,213)"/><path d="M7.8254910108939875,-124.0029247323008L-58.21931061959399,-90.25798742120278L-64.65738186425473,-85.59500506522558z" style="fill:rgb(82,237,172)"/><path d="M-133.35461813714872,6.495920394144496L-138.2381535520073,6.460981174129022L-78.19526847086273,135.97025770086077z" style="fill:rgb(49,63,205)"/><path d="M90.10709517126462,-144.2376173045758L38.74386972357518,-134.52142135162603L29.22687175082509,-131.60560402786513z" style="fill:rgb(82,237,172)"/><path d="M-39.103691987458376,-44.344478155406115L-58.21931061959399,-90.25798742120278L-64.65738186425473,-85.59500506522558z" style="fill:rgb(221,130,213)"/><path d="M-3.3886992077118734,106.22975738177533L-59.50867300956402,-25.08331476571655L-61.80539423530133,-21.664108030420895z" style="fill:rgb(242,155,174)"/><path d="M-131.71500332591782,6.507650705311505L-133.35461813714872,6.495920394144496L-78.19526847086273,135.97025770086077z" style="fill:rgb(49,63,205)"/><path d="M-25.410160741987234,85.45867041378244L-10.191551967169376,126.69467277005423L-7.940848055406355,125.83087532199467z" style="fill:rgb(139,83,246)"/><path d="M-107.63862998782011,3.3652723037616843L-56.29651319576153,136.98341746491295L-47.76475575100225,136.11071879076346z" style="fill:rgb(79,66,228)"/><path d="M90.10709517126462,-144.2376173045758L48.11357702464032,-137.1047218697678L38.74386972357518,-134.52142135162603z" style="fill:rgb(82,237,172)"/><path d="M-27.157580721028584,80.723959508864L-7.940848055406355,125.83087532199467L-7.68706459645714,125.73350196911623z" style="fill:rgb(139,83,246)"/><path d="M-45.306178596110605,-39.46793571516127L-70.40566037635942,-80.97841645563389L-49.430665151817124,-35.826616491676596z" style="fill:rgb(228,137,204)"/><path d="M1.0785235720672703,-129.47509739463155L-146.39636740306653,-54.71277066884769L-117.51511492852961,-51.042339093245886zM7.8254910108939875,-124.0029247323008L-64.65738186425473,-85.59500506522558L-70.40566037635942,-80.97841645563389z" style="fill:rgb(82,237,172)"/><path d="M-7.965257333211641,122.11021368519562L-7.3685250075415265,116.97460195129992L-65.60684405218225,-13.033022470305436z" style="fill:rgb(246,166,151)"/><path d="M90.10709517126462,-144.2376173045758L57.261498739173675,-139.33146728251307L48.11357702464032,-137.1047218697678z" style="fill:rgb(82,237,172)"/><path d="M-49.430665151817124,-35.826616491676596L-70.40566037635942,-80.97841645563389L-50.81535064409775,-34.60419930544898z" style="fill:rgb(228,137,204)"/><path d="M-126.22882951937372,6.13420072455219L-131.71500332591782,6.507650705311505L-71.59495586053951,136.90207364044582z" style="fill:rgb(58,64,214)"/><path d="M-100.72279596878498,1.7699335221161812L-45.86757888423342,135.79797032811373L-38.77487722208187,134.6290815518445z" style="fill:rgb(91,68,234)"/><path d="M-5.8301014704933065,111.66311532086203L-61.80539423530133,-21.664108030420895L-62.57765291466395,-20.51427772931983z" style="fill:rgb(242,155,174)"/><path d="M-45.306178596110605,-39.46793571516127L-64.65738186425473,-85.59500506522558L-70.40566037635942,-80.97841645563389z" style="fill:rgb(228,137,204)"/><path d="M-27.157580721028584,80.723959508864L-25.410160741987234,85.45867041378244L-7.940848055406355,125.83087532199467z" style="fill:rgb(139,83,246)"/><path d="M-124.38794735887296,6.008931467088581L-126.22882951937372,6.13420072455219L-71.59495586053951,136.90207364044582z" style="fill:rgb(58,64,214)"/><path d="M7.8254910108939875,-124.0029247323008L-70.40566037635942,-80.97841645563389L-75.40022686557117,-76.44837823501561zM90.10709517126462,-144.2376173045758L66.11177634674601,-141.17865076272207L57.261498739173675,-139.33146728251307zM-58.21931061959399,-90.25798742120278L-65.43809274391974,-85.48386283425008L-67.92493770275965,-83.22840381012946z" style="fill:rgb(82,237,172)"/><path d="M-105.69091470598056,2.9159153493440915L-47.76475575100225,136.11071879076346L-62.11276384833203,99.71356900463078z" style="fill:rgb(91,68,234)"/><path d="M-5.8301014704933065,111.66311532086203L-62.57765291466395,-20.51427772931983L-64.18434816489966,-17.236649232116243z" style="fill:rgb(245,161,162)"/><path d="M-88.75264711010242,-1.4068643321662633L-38.77487722208187,134.6290815518445L-29.436619761530704,132.55007779426387z" style="fill:rgb(102,71,239)"/><path d="M-100.72279596878498,1.7699335221161812L-62.11276384833203,99.71356900463078L-45.86757888423342,135.79797032811373z" style="fill:rgb(91,68,234)"/><path d="M-50.81535064409775,-34.60419930544898L-75.40022686557117,-76.44837823501561L-54.37390074837374,-31.004114819042922z" style="fill:rgb(234,143,195)"/><path d="M-165.30174059870598,-40.079253375479574L-146.32598289687024,5.3210604273847135L-145.09021550929742,5.605930313548654zM-143.89632787899512,5.881088558122509L-165.30174059870598,-40.079253375479574L-145.09021550929742,5.605930313548654z" style="fill:rgb(32,65,185)"/><path d="M-118.35545930512316,5.223615937675425L-124.38794735887296,6.008931467088581L-64.26964377069324,137.2448615653306z" style="fill:rgb(69,65,222)"/><path d="M-7.68706459645714,125.73350196911623L-7.965257333211641,122.11021368519562L-65.25886908265454,-7.354089526477111z" style="fill:rgb(246,171,139)"/><path d="M-78.79609848708758,-4.533603293787688L-29.436619761530704,132.55007779426387L-19.867827101332608,129.89506034713236z" style="fill:rgb(114,75,243)"/><path d="M90.10709517126462,-144.2376173045758L74.58782482394508,-142.6249623872798L66.11177634674601,-141.17865076272207z" style="fill:rgb(82,237,172)"/><path d="M-54.37390074837374,-31.004114819042922L-75.40022686557117,-76.44837823501561L-55.56924602640285,-29.794844073224105z" style="fill:rgb(234,143,195)"/><path d="M-64.65738186425473,-85.59500506522558L-67.92493770275965,-83.22840381012946L-70.40566037635942,-80.97841645563389zM7.8254910108939875,-124.0029247323008L-75.40022686557117,-76.44837823501561L-79.57964297559344,-72.04645030049689z" style="fill:rgb(82,237,172)"/><path d="M-116.33275095213031,4.96023098503304L-118.35545930512316,5.223615937675425L-64.26964377069324,137.2448615653306z" style="fill:rgb(69,65,222)"/><path d="M-68.66700942241275,-8.106540928687373L-19.867827101332608,129.89506034713236L-10.191551967169376,126.69467277005423z" style="fill:rgb(126,79,245)"/><path d="M-50.81535064409775,-34.60419930544898L-70.40566037635942,-80.97841645563389L-75.40022686557117,-76.44837823501561z" style="fill:rgb(234,143,195)"/><path d="M-139.66092043322035,6.3151915976149455L-165.30174059870598,-40.079253375479574L-143.89632787899512,5.881088558122509z" style="fill:rgb(40,64,196)"/><path d="M-7.3685250075415265,116.97460195129992L-64.18434816489966,-17.236649232116243L-64.72474944518665,-16.13404224354059z" style="fill:rgb(245,161,162)"/><path d="M-165.30174059870598,-40.079253375479574L-167.6842475053692,-40.45429268071973L-146.32598289687024,5.3210604273847135z" style="fill:rgb(32,65,185)"/><path d="M-165.30174059870598,-40.079253375479574L-146.39636740306653,-54.71277066884769L-167.6842475053692,-40.45429268071973zM90.10709517126462,-144.2376173045758L82.61214383928129,-143.65056488338857L74.58782482394508,-142.6249623872798z" style="fill:rgb(82,237,172)"/><path d="M-109.82055131382627,3.7654836667359515L-116.33275095213031,4.96023098503304L-56.29651319576153,136.98341746491295z" style="fill:rgb(79,66,228)"/><path d="M-55.56924602640285,-29.794844073224105L-79.57964297559344,-72.04645030049689L-58.51770808710642,-26.268513167809367z" style="fill:rgb(239,149,184)"/><path d="M-7.3685250075415265,116.97460195129992L-64.72474944518665,-16.13404224354059L-65.60684405218225,-13.033022470305436z" style="fill:rgb(246,166,151)"/><path d="M-107.63862998782011,3.3652723037616843L-109.82055131382627,3.7654836667359515L-56.29651319576153,136.98341746491295z" style="fill:rgb(79,66,228)"/><path d="M-138.2381535520073,6.460981174129022L-159.7097803081696,-39.85208995814479L-139.66092043322035,6.3151915976149455z" style="fill:rgb(40,64,196)"/><path d="M7.8254910108939875,-124.0029247323008L-79.57964297559344,-72.04645030049689L-82.88547676541238,-67.81555496444312z" style="fill:rgb(82,237,172)"/><path d="M-66.29734196244615,-9.032699030055559L-10.191551967169376,126.69467277005423L-25.410160741987234,85.45867041378244z" style="fill:rgb(139,83,246)"/><path d="M-58.51770808710642,-26.268513167809367L-79.57964297559344,-72.04645030049689L-59.50867300956402,-25.08331476571655z" style="fill:rgb(239,149,184)"/><path d="M-105.69091470598056,2.9159153493440915L-107.63862998782011,3.3652723037616843L-47.76475575100225,136.11071879076346z" style="fill:rgb(91,68,234)"/><path d="M-133.35461813714872,6.495920394144496L-159.7097803081696,-39.85208995814479L-138.2381535520073,6.460981174129022z" style="fill:rgb(49,63,205)"/><path d="M-55.56924602640285,-29.794844073224105L-75.40022686557117,-76.44837823501561L-79.57964297559344,-72.04645030049689z" style="fill:rgb(239,149,184)"/><path d="M-139.66092043322035,6.3151915976149455L-159.7097803081696,-39.85208995814479L-165.30174059870598,-40.079253375479574z" style="fill:rgb(40,64,196)"/><path d="M-7.965257333211641,122.11021368519562L-65.60684405218225,-13.033022470305436L-65.90365092339704,-11.989450288153753z" style="fill:rgb(246,166,151)"/><path d="M-100.72279596878498,1.7699335221161812L-38.77487722208187,134.6290815518445L-98.40764290122843,1.2359590502832962z" style="fill:rgb(91,68,234)"/><path d="M7.8254910108939875,-124.0029247323008L-82.88547676541238,-67.81555496444312L-85.26363961343573,-63.79931786403215z" style="fill:rgb(82,237,172)"/><path d="M-25.410160741987234,85.45867041378244L-27.157580721028584,80.723959508864L-66.03014219965449,-9.137099081016263z" style="fill:rgb(139,83,246)"/><path d="M-91.1725393951239,-0.7444660679232519L-98.40764290122843,1.2359590502832962L-38.77487722208187,134.6290815518445z" style="fill:rgb(102,71,239)"/><path d="M-131.71500332591782,6.507650705311505L-153.22492909018905,-40.14522745697298L-133.35461813714872,6.495920394144496z" style="fill:rgb(49,63,205)"/><path d="M-59.50867300956402,-25.08331476571655L-82.88547676541238,-67.81555496444312L-61.80539423530133,-21.664108030420895z" style="fill:rgb(242,155,174)"/><path d="M-88.75264711010242,-1.4068643321662633L-91.1725393951239,-0.7444660679232519L-38.77487722208187,134.6290815518445z" style="fill:rgb(102,71,239)"/><path d="M-105.69091470598056,2.9159153493440915L-62.11276384833203,99.71356900463078L-100.72279596878498,1.7699335221161812z" style="fill:rgb(91,68,234)"/><path d="M-65.90365092339704,-11.989450288153753L-65.25886908265454,-7.354089526477111L-7.965257333211641,122.11021368519562z" style="fill:rgb(246,171,139)"/><path d="M-126.22882951937372,6.13420072455219L-153.22492909018905,-40.14522745697298L-131.71500332591782,6.507650705311505z" style="fill:rgb(58,64,214)"/><path d="M-81.28972253177182,-3.7504185567517685L-88.75264711010242,-1.4068643321662633L-29.436619761530704,132.55007779426387z" style="fill:rgb(114,75,243)"/><path d="M-75.40022686557117,-76.44837823501561L-77.94030169920967,-74.14446135305612L-79.57964297559344,-72.04645030049689z" style="fill:rgb(82,237,172)"/><path d="M-61.80539423530133,-21.664108030420895L-82.88547676541238,-67.81555496444312L-62.57765291466395,-20.51427772931983z" style="fill:rgb(242,155,174)"/><path d="M-78.79609848708758,-4.533603293787688L-81.28972253177182,-3.7504185567517685L-29.436619761530704,132.55007779426387z" style="fill:rgb(114,75,243)"/><path d="M-133.35461813714872,6.495920394144496L-153.22492909018905,-40.14522745697298L-159.7097803081696,-39.85208995814479z" style="fill:rgb(49,63,205)"/><path d="M-59.50867300956402,-25.08331476571655L-79.57964297559344,-72.04645030049689L-82.88547676541238,-67.81555496444312z" style="fill:rgb(242,155,174)"/><path d="M-165.30174059870598,-40.079253375479574L-108.53928159711076,-49.901640220881305L-146.39636740306653,-54.71277066884769z" style="fill:rgb(82,237,172)"/><path d="M-71.20205364685071,-7.21236411140503L-78.79609848708758,-4.533603293787688L-19.867827101332608,129.89506034713236z" style="fill:rgb(126,79,245)"/><path d="M-165.30174059870598,-40.079253375479574L-159.7097803081696,-39.85208995814479L-153.22492909018905,-40.14522745697298z" style="fill:rgb(82,237,172)"/><path d="M-68.66700942241275,-8.106540928687373L-71.20205364685071,-7.21236411140503L-19.867827101332608,129.89506034713236z" style="fill:rgb(126,79,245)"/><path d="M7.8254910108939875,-124.0029247323008L-85.26363961343573,-63.79931786403215L-86.6650067240531,-60.041992594079304z" style="fill:rgb(82,237,172)"/><path d="M-66.29734196244615,-9.032699030055559L-68.66700942241275,-8.106540928687373L-10.191551967169376,126.69467277005423z" style="fill:rgb(139,83,246)"/><path d="M-63.277107817670775,-1.4444894318524786L-6.215393245579691,131.6311916959721L-3.8311109655219138,135.90421491249018z" style="fill:rgb(11,75,140)"/><path d="M-124.38794735887296,6.008931467088581L-145.90715023230334,-40.96658227236445L-126.22882951937372,6.13420072455219z" style="fill:rgb(58,64,214)"/><path d="M46.71409437716457,-44.61791047677649L110.49350929869141,-96.27827844598667L110.2304190319827,-97.02633806531587z" style="fill:rgb(217,127,217)"/><path d="M90.10709517126462,-144.2376173045758L7.8254910108939875,-124.0029247323008L27.407376698296947,-94.9966039857644z" style="fill:rgb(82,237,172)"/><path d="M-118.35545930512316,5.223615937675425L-145.90715023230334,-40.96658227236445L-124.38794735887296,6.008931467088581z" style="fill:rgb(69,65,222)"/><path d="M-62.57765291466395,-20.51427772931983L-85.26363961343573,-63.79931786403215L-64.18434816489966,-17.236649232116243z" style="fill:rgb(245,161,162)"/><path d="M-165.30174059870598,-40.079253375479574L-153.22492909018905,-40.14522745697298L-145.90715023230334,-40.96658227236445z" style="fill:rgb(82,237,172)"/><path d="M-126.22882951937372,6.13420072455219L-145.90715023230334,-40.96658227236445L-153.22492909018905,-40.14522745697298z" style="fill:rgb(58,64,214)"/><path d="M-77.94030169920967,-74.14446135305612L-83.17644621098518,-69.39536173875236L-84.56948707086818,-65.66036252871137z" style="fill:rgb(82,237,172)"/><path d="M-25.410160741987234,85.45867041378244L-66.03014219965449,-9.137099081016263L-66.29734196244615,-9.032699030055559z" style="fill:rgb(139,83,246)"/><path d="M138.8416898226128,-84.29724155104064L188.58525807433057,62.16265892639744L187.3712630482527,57.39626590790926z" style="fill:rgb(246,166,151)"/><path d="M-64.18434816489966,-17.236649232116243L-85.26363961343573,-63.79931786403215L-64.72474944518665,-16.13404224354059z" style="fill:rgb(245,161,162)"/><path d="M7.8254910108939875,-124.0029247323008L-86.6650067240531,-60.041992594079304L-87.04714867946747,-56.588204065437516z" style="fill:rgb(82,237,172)"/><path d="M-116.33275095213031,4.96023098503304L-137.8314323787763,-42.3164257811124L-118.35545930512316,5.223615937675425z" style="fill:rgb(69,65,222)"/><path d="M-62.57765291466395,-20.51427772931983L-82.88547676541238,-67.81555496444312L-85.26363961343573,-63.79931786403215z" style="fill:rgb(245,161,162)"/><path d="M-165.30174059870598,-40.079253375479574L-145.90715023230334,-40.96658227236445L-137.8314323787763,-42.3164257811124z" style="fill:rgb(82,237,172)"/><path d="M-109.82055131382627,3.7654836667359515L-137.8314323787763,-42.3164257811124L-116.33275095213031,4.96023098503304z" style="fill:rgb(79,66,228)"/><path d="M-65.43809274391974,-85.48386283425008L-117.51511492852961,-51.042339093245886L-108.53928159711076,-49.901640220881305z" style="fill:rgb(82,237,172)"/><path d="M-60.27454483522569,1.2859432299021682L-3.8311109655219138,135.90421491249018L-0.4326330978003559,139.7779327561395z" style="fill:rgb(15,71,152)"/><path d="M36.472882001835785,-71.34112469720458L110.2304190319827,-97.02633806531587L93.6045137358453,-144.30524586127308z" style="fill:rgb(217,127,217)"/><path d="M-118.35545930512316,5.223615937675425L-137.8314323787763,-42.3164257811124L-145.90715023230334,-40.96658227236445z" style="fill:rgb(69,65,222)"/><path d="M-107.63862998782011,3.3652723037616843L-129.0868817937599,-44.18727490748149L-109.82055131382627,3.7654836667359515z" style="fill:rgb(79,66,228)"/><path d="M-165.30174059870598,-40.079253375479574L-137.8314323787763,-42.3164257811124L-129.0868817937599,-44.18727490748149z" style="fill:rgb(82,237,172)"/><path d="M-64.72474944518665,-16.13404224354059L-86.6650067240531,-60.041992594079304L-65.60684405218225,-13.033022470305436z" style="fill:rgb(246,166,151)"/><path d="M7.8254910108939875,-124.0029247323008L-87.04714867946747,-56.588204065437516L-86.37525341346173,-53.48197590675188z" style="fill:rgb(82,237,172)"/><path d="M-100.72279596878498,1.7699335221161812L-129.0868817937599,-44.18727490748149L-107.63862998782011,3.3652723037616843z" style="fill:rgb(91,68,234)"/><path d="M-82.88547676541238,-67.81555496444312L-84.56948707086818,-65.66036252871137L-85.26363961343573,-63.79931786403215z" style="fill:rgb(82,237,172)"/><path d="M-63.76314336704772,-2.2386420374479226L-65.20680435453227,-4.597610174227032L-6.215393245579691,131.6311916959721z" style="fill:rgb(11,75,140)"/><path d="M-65.43809274391974,-85.48386283425008L-108.53928159711076,-49.901640220881305L-102.48293561973956,-51.88451171697791z" style="fill:rgb(82,237,172)"/><path d="M-65.90365092339704,-11.989450288153753L-66.03014219965449,-9.137099081016263L-65.25886908265454,-7.354089526477111z" style="fill:rgb(246,171,139)"/><path d="M-165.30174059870598,-40.079253375479574L-129.0868817937599,-44.18727490748149L-119.77586602754378,-46.56301377907945z" style="fill:rgb(82,237,172)"/><path d="M139.6423465471049,-80.66761448715744L188.76014476233004,67.31548033650381L188.58525807433057,62.16265892639744z" style="fill:rgb(245,161,162)"/><path d="M-65.60684405218225,-13.033022470305436L-86.6650067240531,-60.041992594079304L-65.90365092339704,-11.989450288153753z" style="fill:rgb(246,166,151)"/><path d="M-98.40764290122843,1.2359590502832962L-119.77586602754378,-46.56301377907945L-100.72279596878498,1.7699335221161812z" style="fill:rgb(91,68,234)"/><path d="M-109.82055131382627,3.7654836667359515L-129.0868817937599,-44.18727490748149L-137.8314323787763,-42.3164257811124z" style="fill:rgb(79,66,228)"/><path d="M-64.72474944518665,-16.13404224354059L-85.26363961343573,-63.79931786403215L-86.6650067240531,-60.041992594079304z" style="fill:rgb(246,166,151)"/><path d="M-83.17644621098518,-69.39536173875236L-88.7280553224617,-64.3600481389353L-87.37970296414936,-58.12585818527746z" style="fill:rgb(82,237,172)"/><path d="M-91.1725393951239,-0.7444660679232519L-119.77586602754378,-46.56301377907945L-98.40764290122843,1.2359590502832962z" style="fill:rgb(102,71,239)"/><path d="M-165.30174059870598,-40.079253375479574L-119.77586602754378,-46.56301377907945L-110.0125705261537,-49.41923589715006zM90.10709517126462,-144.2376173045758L27.407376698296947,-94.9966039857644L93.6045137358453,-144.30524586127308z" style="fill:rgb(82,237,172)"/><path d="M-63.277107817670775,-1.4444894318524786L-63.76314336704772,-2.2386420374479226L-6.215393245579691,131.6311916959721z" style="fill:rgb(11,75,140)"/><path d="M-165.30174059870598,-40.079253375479574L-110.0125705261537,-49.41923589715006L-108.53928159711076,-49.901640220881305z" style="fill:rgb(82,237,172)"/><path d="M-86.6650067240531,-60.041992594079304L-66.03014219965449,-9.137099081016263L-65.90365092339704,-11.989450288153753z" style="fill:rgb(246,171,139)"/><path d="M-56.20015200501534,3.5506712787485206L-0.4326330978003559,139.7779327561395L3.971337689376587,143.19819769677443z" style="fill:rgb(20,68,163)"/><path d="M-88.75264711010242,-1.4068643321662633L-110.0125705261537,-49.41923589715006L-91.1725393951239,-0.7444660679232519z" style="fill:rgb(102,71,239)"/><path d="M-108.53928159711076,-49.901640220881305L-88.75264711010242,-1.4068643321662633L-87.29906943295957,-1.8632797279981161z" style="fill:rgb(114,75,243)"/><path d="M7.8254910108939875,-124.0029247323008L-86.37525341346173,-53.48197590675188L-84.62425235385675,-50.766443689632204z" style="fill:rgb(82,237,172)"/><path d="M-100.72279596878498,1.7699335221161812L-119.77586602754378,-46.56301377907945L-129.0868817937599,-44.18727490748149z" style="fill:rgb(91,68,234)"/><path d="M-102.48293561973956,-51.88451171697791L-87.29906943295957,-1.8632797279981161L-81.324021693342,-3.7397083012137564zM-102.48293561973956,-51.88451171697791L-81.324021693342,-3.7397083012137564L-81.28972253177182,-3.7504185567517685zM-78.79609848708758,-4.533603293787688L-99.92066141400022,-52.72336506830264L-81.28972253177182,-3.7504185567517685z" style="fill:rgb(114,75,243)"/><path d="M-71.20205364685071,-7.21236411140503L-99.92066141400022,-52.72336506830264L-78.79609848708758,-4.533603293787688zM-68.66700942241275,-8.106540928687373L-89.63132119576038,-56.43496390556399L-71.20205364685071,-7.21236411140503z" style="fill:rgb(126,79,245)"/><path d="M-87.21916791374194,-57.383737556698115L-68.66700942241275,-8.106540928687373L-66.29734196244615,-9.032699030055559zM-86.94728149232337,-57.49069972390165L-66.29734196244615,-9.032699030055559L-66.03014219965449,-9.137099081016263z" style="fill:rgb(139,83,246)"/><path d="M-61.030791009236,0.5982285899336065L-63.277107817670775,-1.4444894318524786L-3.8311109655219138,135.90421491249018z" style="fill:rgb(15,71,152)"/><path d="M139.34794708701702,-76.61516325175504L187.864536549453,72.8074684131562L188.76014476233004,67.31548033650381z" style="fill:rgb(242,155,174)"/><path d="M-91.1725393951239,-0.7444660679232519L-110.0125705261537,-49.41923589715006L-119.77586602754378,-46.56301377907945z" style="fill:rgb(102,71,239)"/><path d="M138.8416898226128,-84.29724155104064L139.04031928005892,-83.39656140403066L188.58525807433057,62.16265892639744z" style="fill:rgb(246,166,151)"/><path d="M-108.53928159711076,-49.901640220881305L-110.0125705261537,-49.41923589715006L-88.75264711010242,-1.4068643321662633z" style="fill:rgb(114,75,243)"/><path d="M46.71409437716457,-44.61791047677649L110.2304190319827,-97.02633806531587L36.472882001835785,-71.34112469720458z" style="fill:rgb(217,127,217)"/><path d="M-102.48293561973956,-51.88451171697791L-108.53928159711076,-49.901640220881305L-87.29906943295957,-1.8632797279981161z" style="fill:rgb(114,75,243)"/><path d="M7.8254910108939875,-124.0029247323008L-84.62425235385675,-50.766443689632204L-81.77948642792884,-48.482852876071355zM-88.7280553224617,-64.3600481389353L-102.48293561973956,-51.88451171697791L-99.92066141400022,-52.72336506830264z" style="fill:rgb(82,237,172)"/><path d="M-86.6650067240531,-60.041992594079304L-86.94728149232337,-57.49069972390165L-66.03014219965449,-9.137099081016263z" style="fill:rgb(246,171,139)"/><path d="M-60.27454483522569,1.2859432299021682L-61.030791009236,0.5982285899336065L-3.8311109655219138,135.90421491249018z" style="fill:rgb(15,71,152)"/><path d="M-88.7280553224617,-64.3600481389353L-99.92066141400022,-52.72336506830264L-89.63132119576038,-56.43496390556399z" style="fill:rgb(82,237,172)"/><path d="M-102.48293561973956,-51.88451171697791L-81.28972253177182,-3.7504185567517685L-99.92066141400022,-52.72336506830264z" style="fill:rgb(114,75,243)"/><path d="M139.04031928005892,-83.39656140403066L139.6423465471049,-80.66761448715744L188.58525807433057,62.16265892639744z" style="fill:rgb(246,166,151)"/><path d="M-51.068482060578546,5.310207829942157L3.971337689376587,143.19819769677443L9.359179481358623,146.113855624027z" style="fill:rgb(26,66,175)"/><path d="M-88.7280553224617,-64.3600481389353L-89.63132119576038,-56.43496390556399L-87.21916791374194,-57.383737556698115z" style="fill:rgb(82,237,172)"/><path d="M-71.20205364685071,-7.21236411140503L-89.63132119576038,-56.43496390556399L-99.92066141400022,-52.72336506830264z" style="fill:rgb(126,79,245)"/><path d="M-87.21916791374194,-57.383737556698115L-89.63132119576038,-56.43496390556399L-68.66700942241275,-8.106540928687373zM-86.94728149232337,-57.49069972390165L-87.21916791374194,-57.383737556698115L-66.29734196244615,-9.032699030055559z" style="fill:rgb(139,83,246)"/><path d="M63.96869755948536,-17.179362341038814L113.89166779103583,-96.14767861933663L110.49350929869141,-96.27827844598667zM-86.6650067240531,-60.041992594079304L-87.37970296414936,-58.12585818527746L-87.21916791374194,-57.383737556698115z" style="fill:rgb(82,237,172)"/><path d="M137.92913348376874,-72.17326135131576L185.87998290593896,78.58442541056698L187.864536549453,72.8074684131562z" style="fill:rgb(239,149,184)"/><path d="M-86.6650067240531,-60.041992594079304L-87.21916791374194,-57.383737556698115L-86.94728149232337,-57.49069972390165z" style="fill:rgb(82,237,172)"/><path d="M-57.22622466181733,2.9802911652095934L-60.27454483522569,1.2859432299021682L-0.4326330978003559,139.7779327561395z" style="fill:rgb(20,68,163)"/><path d="M7.8254910108939875,-124.0029247323008L-81.77948642792884,-48.482852876071355L-77.83915385879803,-46.66962851684166z" style="fill:rgb(82,237,172)"/><path d="M139.6423465471049,-80.66761448715744L139.56933417381725,-79.66191178797092L188.76014476233004,67.31548033650381z" style="fill:rgb(245,161,162)"/><path d="M63.96869755948536,-17.179362341038814L120.13166119426192,-95.39634079498975L113.89166779103583,-96.14767861933663z" style="fill:rgb(82,237,172)"/><path d="M-56.20015200501534,3.5506712787485206L-57.22622466181733,2.9802911652095934L-0.4326330978003559,139.7779327561395z" style="fill:rgb(20,68,163)"/><path d="M-44.90914538466342,6.529777148600265L9.359179481358623,146.113855624027L15.69503846040905,148.4773289158914z" style="fill:rgb(32,65,185)"/><path d="M139.56933417381725,-79.66191178797092L139.34794708701702,-76.61516325175504L188.76014476233004,67.31548033650381z" style="fill:rgb(245,161,162)"/><path d="M36.472882001835785,-71.34112469720458L93.6045137358453,-144.30524586127308L27.407376698296947,-94.9966039857644z" style="fill:rgb(217,127,217)"/><path d="M-63.76314336704772,-2.2386420374479226L-86.37525341346173,-53.48197590675188L-65.20680435453227,-4.597610174227032z" style="fill:rgb(11,75,140)"/><path d="M7.8254910108939875,-124.0029247323008L-77.83915385879803,-46.66962851684166L-72.81500772925823,-45.36156409958979zM63.96869755948536,-17.179362341038814L125.63212879107743,-94.153132356849L120.13166119426192,-95.39634079498975z" style="fill:rgb(82,237,172)"/><path d="M135.3702953231226,-67.38232321403969L182.80156181659925,84.58519612920331L185.87998290593896,78.58442541056698z" style="fill:rgb(234,143,195)"/><path d="M-52.360519370763605,4.867254325939502L-56.20015200501534,3.5506712787485206L3.971337689376587,143.19819769677443z" style="fill:rgb(26,66,175)"/><path d="M139.34794708701702,-76.61516325175504L138.99573202957154,-75.51262486654002L187.864536549453,72.8074684131562z" style="fill:rgb(242,155,174)"/><path d="M-63.277107817670775,-1.4444894318524786L-84.62425235385675,-50.766443689632204L-63.76314336704772,-2.2386420374479226z" style="fill:rgb(11,75,140)"/><path d="M-37.767690490575795,7.1797808902289715L15.69503846040905,148.4773289158914L22.928210265508397,150.2464247770533z" style="fill:rgb(40,64,196)"/><path d="M-51.068482060578546,5.310207829942157L-52.360519370763605,4.867254325939502L3.971337689376587,143.19819769677443z" style="fill:rgb(26,66,175)"/><path d="M63.96869755948536,-17.179362341038814L130.32004289284836,-92.4162450204943L125.63212879107743,-94.153132356849z" style="fill:rgb(82,237,172)"/><path d="M138.99573202957154,-75.51262486654002L137.92913348376874,-72.17326135131576L187.864536549453,72.8074684131562z" style="fill:rgb(242,155,174)"/><path d="M7.8254910108939875,-124.0029247323008L-72.81500772925823,-45.36156409958979L-66.73415487513319,-44.588854530047584z" style="fill:rgb(82,237,172)"/><path d="M-63.76314336704772,-2.2386420374479226L-84.62425235385675,-50.766443689632204L-86.37525341346173,-53.48197590675188z" style="fill:rgb(11,75,140)"/><path d="M7.8254910108939875,-124.0029247323008L-37.73796138996522,-46.47150905040978L27.407376698296947,-94.9966039857644z" style="fill:rgb(82,237,172)"/><path d="M-61.030791009236,0.5982285899336065L-84.62425235385675,-50.766443689632204L-63.277107817670775,-1.4444894318524786z" style="fill:rgb(15,71,152)"/><path d="M131.67049338024262,-62.29007322484835L178.63951555922466,90.7426521985434L182.80156181659925,84.58519612920331z" style="fill:rgb(228,137,204)"/><path d="M63.96869755948536,-17.179362341038814L110.49350929869141,-96.27827844598667L46.71409437716457,-44.61791047677649z" style="fill:rgb(82,237,172)"/><path d="M-46.45951303026864,6.222862662159454L-51.068482060578546,5.310207829942157L9.359179481358623,146.113855624027z" style="fill:rgb(32,65,185)"/><path d="M137.92913348376874,-72.17326135131576L137.293817496909,-70.98363383423569L185.87998290593896,78.58442541056698z" style="fill:rgb(239,149,184)"/><path d="M63.96869755948536,-17.179362341038814L134.12629920199447,-90.18834392271954L130.32004289284836,-92.4162450204943z" style="fill:rgb(82,237,172)"/><path d="M-29.70575802221735,7.23745777955075L22.928210265508397,150.2464247770533L30.993199934244693,151.38498801910364z" style="fill:rgb(49,63,205)"/><path d="M7.8254910108939875,-124.0029247323008L-66.73415487513319,-44.588854530047584L-59.63992117626988,-44.375597204121746z" style="fill:rgb(82,237,172)"/><path d="M-60.27454483522569,1.2859432299021682L-81.77948642792884,-48.482852876071355L-61.030791009236,0.5982285899336065z" style="fill:rgb(15,71,152)"/><path d="M-44.90914538466342,6.529777148600265L-46.45951303026864,6.222862662159454L9.359179481358623,146.113855624027z" style="fill:rgb(32,65,185)"/><path d="M137.293817496909,-70.98363383423569L135.3702953231226,-67.38232321403969L185.87998290593896,78.58442541056698z" style="fill:rgb(239,149,184)"/><path d="M126.84502831453031,-56.95085118044924L173.42053171337116,96.98437720291538L178.63951555922466,90.7426521985434z" style="fill:rgb(221,130,213)"/><path d="M-61.030791009236,0.5982285899336065L-81.77948642792884,-48.482852876071355L-84.62425235385675,-50.766443689632204z" style="fill:rgb(15,71,152)"/><path d="M-57.22622466181733,2.9802911652095934L-81.77948642792884,-48.482852876071355L-60.27454483522569,1.2859432299021682z" style="fill:rgb(20,68,163)"/><path d="M63.96869755948536,-17.179362341038814L136.986182140658,-87.47741964148096L134.12629920199447,-90.18834392271954zM7.8254910108939875,-124.0029247323008L-59.63992117626988,-44.375597204121746L-51.59265677225109,-44.739362225952355z" style="fill:rgb(82,237,172)"/><path d="M-20.802171825247086,6.687757323667649L30.993199934244693,151.38498801910364L39.80890455461602,151.86456752368488z" style="fill:rgb(58,64,214)"/><path d="M-39.564607762749546,7.016259173590977L-44.90914538466342,6.529777148600265L15.69503846040905,148.4773289158914z" style="fill:rgb(40,64,196)"/><path d="M135.3702953231226,-67.38232321403969L134.45136060751778,-66.11754706914148L182.80156181659925,84.58519612920331z" style="fill:rgb(234,143,195)"/><path d="M-37.767690490575795,7.1797808902289715L-39.564607762749546,7.016259173590977L15.69503846040905,148.4773289158914z" style="fill:rgb(40,64,196)"/><path d="M120.92685522831115,-51.42521589455849L167.1879147881877,103.23368915117412L173.42053171337116,96.98437720291538z" style="fill:rgb(213,124,221)"/><path d="M134.45136060751778,-66.11754706914148L131.67049338024262,-62.29007322484835L182.80156181659925,84.58519612920331z" style="fill:rgb(234,143,195)"/><path d="M7.8254910108939875,-124.0029247323008L-51.59265677225109,-44.739362225952355L-42.6696351224123,-45.68983905010408z" style="fill:rgb(82,237,172)"/><path d="M-56.20015200501534,3.5506712787485206L-77.83915385879803,-46.66962851684166L-57.22622466181733,2.9802911652095934z" style="fill:rgb(20,68,163)"/><path d="M63.96869755948536,-17.179362341038814L138.8416898226128,-84.29724155104064L136.986182140658,-87.47741964148096z" style="fill:rgb(82,237,172)"/><path d="M-11.15162730648697,5.524260918071536L39.80890455461602,151.86456752368488L49.28002765336644,151.6654826119409z" style="fill:rgb(69,65,222)"/><path d="M-52.360519370763605,4.867254325939502L-77.83915385879803,-46.66962851684166L-56.20015200501534,3.5506712787485206z" style="fill:rgb(26,66,175)"/><path d="M-57.22622466181733,2.9802911652095934L-77.83915385879803,-46.66962851684166L-81.77948642792884,-48.482852876071355z" style="fill:rgb(20,68,163)"/><path d="M7.8254910108939875,-124.0029247323008L-42.6696351224123,-45.68983905010408L-37.73796138996522,-46.47150905040978z" style="fill:rgb(82,237,172)"/><path d="M-31.733330641490724,7.222951895496513L-37.767690490575795,7.1797808902289715L22.928210265508397,150.2464247770533z" style="fill:rgb(49,63,205)"/><path d="M131.67049338024262,-62.29007322484835L130.47146119208975,-60.96331920464295L178.63951555922466,90.7426521985434z" style="fill:rgb(228,137,204)"/><path d="M113.96678799957324,-45.77923783213733L160.0024175940655,109.4105244338222L167.1879147881877,103.23368915117412z" style="fill:rgb(204,117,228)"/><path d="M63.96869755948536,-17.179362341038814L139.6423465471049,-80.66761448715744L138.8416898226128,-84.29724155104064z" style="fill:rgb(82,237,172)"/><path d="M-29.70575802221735,7.23745777955075L-31.733330641490724,7.222951895496513L22.928210265508397,150.2464247770533z" style="fill:rgb(49,63,205)"/><path d="M130.47146119208975,-60.96331920464295L126.84502831453031,-56.95085118044924L178.63951555922466,90.7426521985434z" style="fill:rgb(228,137,204)"/><path d="M-0.8645418249891145,3.750117051859102L49.28002765336644,151.6654826119409L59.297409021556405,150.77747772164423z" style="fill:rgb(79,66,228)"/><path d="M-51.068482060578546,5.310207829942157L-72.81500772925823,-45.36156409958979L-52.360519370763605,4.867254325939502z" style="fill:rgb(26,66,175)"/><path d="M46.71409437716457,-44.61791047677649L36.472882001835785,-71.34112469720458L-37.38461577818977,-45.62115397701964z" style="fill:rgb(217,127,217)"/><path d="M106.03423534869007,-40.08385768571558L151.94168658676628,115.43380168477104L160.0024175940655,109.4105244338222z" style="fill:rgb(195,111,234)"/><path d="M-23.04027277633778,6.825907890508425L-29.70575802221735,7.23745777955075L30.993199934244693,151.38498801910364z" style="fill:rgb(58,64,214)"/><path d="M126.84502831453031,-56.95085118044924L125.37369804400605,-55.5770144231804L173.42053171337116,96.98437720291538z" style="fill:rgb(221,130,213)"/><path d="M-46.45951303026864,6.222862662159454L-72.81500772925823,-45.36156409958979L-51.068482060578546,5.310207829942157z" style="fill:rgb(32,65,185)"/><path d="M9.934670665810726,1.37797220023021L59.297409021556405,150.77747772164423L69.73978216455014,149.2011503988196z" style="fill:rgb(91,68,234)"/><path d="M-52.360519370763605,4.867254325939502L-72.81500772925823,-45.36156409958979L-77.83915385879803,-46.66962851684166z" style="fill:rgb(26,66,175)"/><path d="M63.96869755948536,-17.179362341038814L139.34794708701702,-76.61516325175504L139.6423465471049,-80.66761448715744z" style="fill:rgb(82,237,172)"/><path d="M-20.802171825247086,6.687757323667649L-23.04027277633778,6.825907890508425L30.993199934244693,151.38498801910364z" style="fill:rgb(58,64,214)"/><path d="M125.37369804400605,-55.5770144231804L120.92685522831115,-51.42521589455849L173.42053171337116,96.98437720291538z" style="fill:rgb(221,130,213)"/><path d="M97.21654808305765,-34.412857228460474L143.09956933566605,121.22239393242705L151.94168658676628,115.43380168477104z" style="fill:rgb(184,105,239)"/><path d="M36.472882001835785,-71.34112469720458L27.407376698296947,-94.9966039857644L-37.73796138996522,-46.47150905040978z" style="fill:rgb(217,127,217)"/><path d="M21.109496640482362,-1.5691210963848183L69.73978216455014,149.2011503988196L80.47564109566773,146.94780616795342z" style="fill:rgb(102,71,239)"/><path d="M87.61817801523974,-28.842089378657334L133.58447851491957,126.69696957227846L143.09956933566605,121.22239393242705z" style="fill:rgb(174,99,242)"/><path d="M-44.90914538466342,6.529777148600265L-66.73415487513319,-44.588854530047584L-46.45951303026864,6.222862662159454z" style="fill:rgb(32,65,185)"/><path d="M-13.576022113779016,5.816623133949608L-20.802171825247086,6.687757323667649L39.80890455461602,151.86456752368488z" style="fill:rgb(69,65,222)"/><path d="M120.92685522831115,-51.42521589455849L119.1954880990683,-50.02067481471684L167.1879147881877,103.23368915117412z" style="fill:rgb(213,124,221)"/><path d="M32.51417787364093,-5.057885399011919L80.47564109566773,146.94780616795342L91.36597613852415,144.0402669555112z" style="fill:rgb(114,75,243)"/><path d="M63.96869755948536,-17.179362341038814L137.92913348376874,-72.17326135131576L139.34794708701702,-76.61516325175504z" style="fill:rgb(82,237,172)"/><path d="M77.35880311173173,-23.447310445980534L123.51807452944006,131.7822109555782L133.58447851491957,126.69696957227846z" style="fill:rgb(162,93,245)"/><path d="M-11.15162730648697,5.524260918071536L-13.576022113779016,5.816623133949608L39.80890455461602,151.86456752368488z" style="fill:rgb(69,65,222)"/><path d="M43.99641735124015,-9.045525384811386L91.36597613852415,144.0402669555112L102.26684123442871,140.51234659338587z" style="fill:rgb(126,79,245)"/><path d="M-39.564607762749546,7.016259173590977L-66.73415487513319,-44.588854530047584L-44.90914538466342,6.529777148600265z" style="fill:rgb(40,64,196)"/><path d="M119.1954880990683,-50.02067481471684L113.96678799957324,-45.77923783213733L167.1879147881877,103.23368915117412z" style="fill:rgb(213,124,221)"/><path d="M63.96869755948536,-17.179362341038814L121.07467544311423,132.86020298044735L123.51807452944006,131.7822109555782zM63.96869755948536,-17.179362341038814L113.03229185242006,136.40828498186602L121.07467544311423,132.86020298044735z" style="fill:rgb(151,88,246)"/><path d="M-46.45951303026864,6.222862662159454L-66.73415487513319,-44.588854530047584L-72.81500772925823,-45.36156409958979z" style="fill:rgb(32,65,185)"/><path d="M55.40057446863795,-13.480470143719323L102.26684123442871,140.51234659338587L113.03229185242006,136.40828498186602z" style="fill:rgb(139,83,246)"/><path d="M9.934670665810726,1.37797220023021L46.71409437716457,-44.61791047677649L-15.897306373832091,6.096501406146433z" style="fill:rgb(82,237,172)"/><path d="M-3.447247069401948,4.195483737929818L-11.15162730648697,5.524260918071536L49.28002765336644,151.6654826119409z" style="fill:rgb(79,66,228)"/><path d="M113.96678799957324,-45.77923783213733L111.9921311423527,-44.361526806240406L160.0024175940655,109.4105244338222z" style="fill:rgb(204,117,228)"/><path d="M63.96869755948536,-17.179362341038814L135.3702953231226,-67.38232321403969L137.92913348376874,-72.17326135131576z" style="fill:rgb(82,237,172)"/><path d="M46.71409437716457,-44.61791047677649L-37.38461577818977,-45.62115397701964L-15.897306373832091,6.096501406146433z" style="fill:rgb(217,127,217)"/><path d="M-0.8645418249891145,3.750117051859102L-3.447247069401948,4.195483737929818L49.28002765336644,151.6654826119409z" style="fill:rgb(79,66,228)"/><path d="M-37.767690490575795,7.1797808902289715L-59.63992117626988,-44.375597204121746L-39.564607762749546,7.016259173590977z" style="fill:rgb(40,64,196)"/><path d="M111.9921311423527,-44.361526806240406L106.03423534869007,-40.08385768571558L160.0024175940655,109.4105244338222z" style="fill:rgb(204,117,228)"/><path d="M-31.733330641490724,7.222951895496513L-59.63992117626988,-44.375597204121746L-37.767690490575795,7.1797808902289715z" style="fill:rgb(49,63,205)"/><path d="M7.225255903733564,1.9730594319312282L-0.8645418249891145,3.750117051859102L59.297409021556405,150.77747772164423z" style="fill:rgb(91,68,234)"/><path d="M106.03423534869007,-40.08385768571558L103.83784901946827,-38.67117507295853L151.94168658676628,115.43380168477104z" style="fill:rgb(195,111,234)"/><path d="M-39.564607762749546,7.016259173590977L-59.63992117626988,-44.375597204121746L-66.73415487513319,-44.588854530047584z" style="fill:rgb(40,64,196)"/><path d="M63.96869755948536,-17.179362341038814L131.67049338024262,-62.29007322484835L135.3702953231226,-67.38232321403969zM9.934670665810726,1.37797220023021L63.96869755948536,-17.179362341038814L46.71409437716457,-44.61791047677649z" style="fill:rgb(82,237,172)"/><path d="M9.934670665810726,1.37797220023021L7.225255903733564,1.9730594319312282L59.297409021556405,150.77747772164423z" style="fill:rgb(91,68,234)"/><path d="M103.83784901946827,-38.67117507295853L97.21654808305765,-34.412857228460474L151.94168658676628,115.43380168477104z" style="fill:rgb(195,111,234)"/><path d="M18.307966687112,-0.8302465356739073L9.934670665810726,1.37797220023021L69.73978216455014,149.2011503988196z" style="fill:rgb(102,71,239)"/><path d="M97.21654808305765,-34.412857228460474L94.82387713825167,-33.024194328550664L143.09956933566605,121.22239393242705z" style="fill:rgb(184,105,239)"/><path d="M-29.70575802221735,7.23745777955075L-51.59265677225109,-44.739362225952355L-31.733330641490724,7.222951895496513z" style="fill:rgb(49,63,205)"/><path d="M21.109496640482362,-1.5691210963848183L18.307966687112,-0.8302465356739073L69.73978216455014,149.2011503988196z" style="fill:rgb(102,71,239)"/><path d="M94.82387713825167,-33.024194328550664L87.61817801523974,-28.842089378657334L143.09956933566605,121.22239393242705z" style="fill:rgb(184,105,239)"/><path d="M36.472882001835785,-71.34112469720458L-37.73796138996522,-46.47150905040978L-37.38461577818977,-45.62115397701964z" style="fill:rgb(217,127,217)"/><path d="M63.96869755948536,-17.179362341038814L126.84502831453031,-56.95085118044924L131.67049338024262,-62.29007322484835z" style="fill:rgb(82,237,172)"/><path d="M-23.04027277633778,6.825907890508425L-51.59265677225109,-44.739362225952355L-29.70575802221735,7.23745777955075z" style="fill:rgb(58,64,214)"/><path d="M29.657267283038205,-4.18383770716709L21.109496640482362,-1.5691210963848183L80.47564109566773,146.94780616795342z" style="fill:rgb(114,75,243)"/><path d="M87.61817801523974,-28.842089378657334L85.05863660262999,-27.496183756013906L133.58447851491957,126.69696957227846z" style="fill:rgb(174,99,242)"/><path d="M32.51417787364093,-5.057885399011919L29.657267283038205,-4.18383770716709L80.47564109566773,146.94780616795342z" style="fill:rgb(114,75,243)"/><path d="M-31.733330641490724,7.222951895496513L-51.59265677225109,-44.739362225952355L-59.63992117626988,-44.375597204121746z" style="fill:rgb(49,63,205)"/><path d="M85.05863660262999,-27.496183756013906L77.35880311173173,-23.447310445980534L133.58447851491957,126.69696957227846z" style="fill:rgb(174,99,242)"/><path d="M41.122382434481075,-8.047438495075713L32.51417787364093,-5.057885399011919L91.36597613852415,144.0402669555112z" style="fill:rgb(126,79,245)"/><path d="M77.35880311173173,-23.447310445980534L74.6654601786587,-22.162945034580602L123.51807452944006,131.7822109555782z" style="fill:rgb(162,93,245)"/><path d="M43.99641735124015,-9.045525384811386L41.122382434481075,-8.047438495075713L91.36597613852415,144.0402669555112z" style="fill:rgb(126,79,245)"/><path d="M74.6654601786587,-22.162945034580602L66.57174244338415,-18.30314391877671L123.51807452944006,131.7822109555782z" style="fill:rgb(162,93,245)"/><path d="M63.96869755948536,-17.179362341038814L123.51807452944006,131.7822109555782L66.57174244338415,-18.30314391877671z" style="fill:rgb(151,88,246)"/><path d="M52.548419939383585,-12.371402703546579L43.99641735124015,-9.045525384811386L102.26684123442871,140.51234659338587z" style="fill:rgb(139,83,246)"/><path d="M63.96869755948536,-17.179362341038814L63.78023858942018,-17.098021696549733L113.03229185242006,136.40828498186602z" style="fill:rgb(150,88,246)"/><path d="M63.96869755948536,-17.179362341038814L120.92685522831115,-51.42521589455849L126.84502831453031,-56.95085118044924z" style="fill:rgb(82,237,172)"/><path d="M55.40057446863795,-13.480470143719323L52.548419939383585,-12.371402703546579L102.26684123442871,140.51234659338587z" style="fill:rgb(139,83,246)"/><path d="M63.78023858942018,-17.098021696549733L55.40057446863795,-13.480470143719323L113.03229185242006,136.40828498186602z" style="fill:rgb(151,88,246)"/><path d="M-20.802171825247086,6.687757323667649L-42.6696351224123,-45.68983905010408L-23.04027277633778,6.825907890508425z" style="fill:rgb(58,64,214)"/><path d="M9.934670665810726,1.37797220023021L-15.897306373832091,6.096501406146433L-11.15162730648697,5.524260918071536z" style="fill:rgb(82,237,172)"/><path d="M-37.73796138996522,-46.47150905040978L-20.802171825247086,6.687757323667649L-15.897306373832091,6.096501406146433z" style="fill:rgb(69,65,222)"/><path d="M63.96869755948536,-17.179362341038814L113.96678799957324,-45.77923783213733L120.92685522831115,-51.42521589455849z" style="fill:rgb(82,237,172)"/><path d="M-23.04027277633778,6.825907890508425L-42.6696351224123,-45.68983905010408L-51.59265677225109,-44.739362225952355z" style="fill:rgb(58,64,214)"/><path d="M9.934670665810726,1.37797220023021L-11.15162730648697,5.524260918071536L-0.8645418249891145,3.750117051859102zM63.96869755948536,-17.179362341038814L106.03423534869007,-40.08385768571558L113.96678799957324,-45.77923783213733z" style="fill:rgb(82,237,172)"/><path d="M-37.73796138996522,-46.47150905040978L-42.6696351224123,-45.68983905010408L-20.802171825247086,6.687757323667649z" style="fill:rgb(69,65,222)"/><path d="M63.96869755948536,-17.179362341038814L97.21654808305765,-34.412857228460474L106.03423534869007,-40.08385768571558zM9.934670665810726,1.37797220023021L21.109496640482362,-1.5691210963848183L32.51417787364093,-5.057885399011919zM63.96869755948536,-17.179362341038814L87.61817801523974,-28.842089378657334L97.21654808305765,-34.412857228460474zM9.934670665810726,1.37797220023021L32.51417787364093,-5.057885399011919L43.99641735124015,-9.045525384811386zM9.934670665810726,1.37797220023021L43.99641735124015,-9.045525384811386L55.40057446863795,-13.480470143719323zM9.934670665810726,1.37797220023021L55.40057446863795,-13.480470143719323L63.96869755948536,-17.179362341038814zM63.96869755948536,-17.179362341038814L77.35880311173173,-23.447310445980534L87.61817801523974,-28.842089378657334zM63.96869755948536,-17.179362341038814L66.57174244338415,-18.30314391877671L77.35880311173173,-23.447310445980534z" style="fill:rgb(82,237,172)"/></svg>